<?xml version="1.0" encoding="UTF-8"?>
<svg width="12px" height="14px" viewBox="0 0 12 14" version="1.1" xmlns="http://www.w3.org/2000/svg" xmlns:xlink="http://www.w3.org/1999/xlink">
    <title>Shape</title>
    <g id="Mobile" stroke="none" stroke-width="1" fill="none" fill-rule="evenodd">
        <g id="Menu" transform="translate(-37.000000, -344.000000)" fill="white" fill-rule="nonzero">
            <g id="Group-6">
                <path d="M40,358 L37,358 L37,348 L40,348 L40,358 Z M38.5,347 C37.67152,347 37,346.32848 37,345.5 C37,344.67152 37.67152,344 38.5,344 C39.32848,344 40,344.67152 40,345.5 C40,346.32848 39.32848,347 38.5,347 Z M49,357.999543 L46.3333333,357.999543 L46.3333333,352.285518 C46.3333333,351.496526 45.7364267,350.857012 45,350.857012 C44.2635733,350.857012 43.6666667,351.496526 43.6666667,352.285518 L43.6666667,357.999543 L41,357.999543 L41,348 L43.6666667,348 L43.6666667,349.773633 C44.21664,348.96407 45.0571733,348 46.0001067,348 C47.6568533,348 49,349.599013 49,351.571494 L49,358 L49,357.999543 Z" id="Shape"></path>
            </g>
        </g>
    </g>
</svg>