<?xml version="1.0" encoding="UTF-8"?>
<svg width="178px" height="180px" viewBox="0 0 178 180" version="1.1" xmlns="http://www.w3.org/2000/svg" xmlns:xlink="http://www.w3.org/1999/xlink">
    <title>Group</title>
    <defs>
        <filter x="-70.6%" y="-70.0%" width="241.3%" height="240.0%" filterUnits="objectBoundingBox" id="filter-1">
            <feOffset dx="10" dy="10" in="SourceAlpha" result="shadowOffsetOuter1"></feOffset>
            <feGaussianBlur stdDeviation="15" in="shadowOffsetOuter1" result="shadowBlurOuter1"></feGaussianBlur>
            <feColorMatrix values="0 0 0 0 0   0 0 0 0 0   0 0 0 0 0  0 0 0 0.18198208 0" type="matrix" in="shadowBlurOuter1" result="shadowMatrixOuter1"></feColorMatrix>
            <feMerge>
                <feMergeNode in="shadowMatrixOuter1"></feMergeNode>
                <feMergeNode in="SourceGraphic"></feMergeNode>
            </feMerge>
        </filter>
    </defs>
    <g id="Mobile" stroke="none" stroke-width="1" fill="none" fill-rule="evenodd">
        <g id="Home" transform="translate(-99.000000, -557.000000)" fill="#FFFFFF" fill-rule="nonzero">
            <g id="Group-5" transform="translate(0.000000, 32.000000)">
                <g id="Group-4" filter="url(#filter-1)" transform="translate(133.000000, 560.000000)">
                    <g id="Group" transform="translate(23.783784, 22.792793)">
                        <path d="M18.9668149,31.344965 L18.2999859,25.0230776 C18.1614796,23.9103165 17.21978,23.07485 16.1024487,23.073417 L5.18829946,23.0619508 C4.04098228,23.0605195 3.08214782,23.9382609 2.97791116,25.0846986 C2.97648326,24.3266167 2.56596218,31.1966446 2.37176786,37.4956032 C2.36891206,37.5837356 2.37248181,37.670435 2.38604685,37.7578508 C2.72374507,39.9934044 3.59190791,42.8673804 8.13191412,44.3305215 C10.8463509,45.2053967 11.4246502,43.0457947 10.3822836,41.7589184 C9.35990762,40.4964039 8.44676594,39.4954205 7.83062734,38.5926008 C7.25589782,37.7492526 7.36656003,35.3467491 7.38583667,35.0536909 C8.18260455,34.5872341 9.55481589,34.0190309 10.1659568,33.7718303 C12.7504548,32.7292885 15.7354785,31.9267821 18.9668149,31.344965 Z" id="Path"></path>
                        <path d="M60.0480304,40.6897719 C59.661481,41.3662737 59.1496609,42.0210463 58.4660411,42.6222203 C58.2212264,44.7755819 55.5132329,47.0795993 51.1151593,48.8454573 C45.823727,50.9698467 38.7498724,52.1403252 31.1956943,52.1403252 C23.6415161,52.1403252 16.5669457,50.970571 11.2762292,48.8454573 C6.7972666,47.0470055 4.06994559,44.6908381 3.91246249,42.5041584 C3.25103346,41.8957414 2.75997251,41.2358986 2.38988721,40.5572239 C2.21307664,41.0316443 3.32619585,58.0224141 3.32619585,58.0224141 L6.78294996,58.0224141 L6.68989176,48.6245439 C9.72215733,50.5164312 14.0722701,52.0331279 19.2233993,52.9674826 L20.0172573,64.4136901 L23.4296298,64.4136901 L24.3043768,53.6693351 C26.5148669,53.884454 28.8205627,54.0017916 31.1956943,54.0017916 C33.4863576,54.0017916 35.7118802,53.8924214 37.8500712,53.6917886 L38.5873785,64.4144144 L41.999751,64.4144144 L42.9296171,53.010941 C48.1866894,52.0802078 52.6255654,50.5446791 55.7043601,48.6230953 L55.623471,57.8623425 L59.0802252,57.8623425 C59.0802252,57.8623425 60.1962077,41.1214583 60.0480304,40.6897719 Z" id="Path"></path>
                        <path d="M43.4656175,31.344965 L44.1324465,25.0230776 C44.2709528,23.9103165 45.2126525,23.07485 46.3299838,23.073417 L57.244133,23.0619508 C58.3914502,23.0605195 59.3502846,23.9382609 59.4545213,25.0846986 C59.4559492,24.3266167 59.8664703,31.1966446 60.0606646,37.4956032 C60.0635204,37.5837356 60.0599506,37.670435 60.0463856,37.7578508 C59.7086874,39.9934044 58.8405245,42.8673804 54.3005183,44.3305215 C51.5860815,45.2053967 51.0077823,43.0457947 52.0501488,41.7589184 C53.0725248,40.4964039 53.9856665,39.4954205 54.6018051,38.5926008 C55.1765346,37.7492526 55.0658724,35.3467491 55.0465958,35.0536909 C54.2498279,34.5872341 52.8776165,34.0190309 52.2664756,33.7718303 C49.6819776,32.7292885 46.6969539,31.9267821 43.4656175,31.344965 Z" id="Path"></path>
                        <path d="M8.6931235,36.520819 C9.42563985,36.1540438 10.2266957,35.8018013 11.0948633,35.4675515 C16.43238,33.4143027 23.5569225,32.2835281 31.1555302,32.2835281 C38.7541378,32.2835281 45.8786803,33.4143027 51.2161971,35.4675515 C52.1321995,35.819794 52.9746647,36.1921054 53.7393089,36.5810255 L53.7393089,35.1595988 C48.4125015,32.6309264 40.2755728,31.0143477 31.1555302,31.0143477 C22.104741,31.0143477 14.0213589,32.6067054 8.6931235,35.1021604 L8.6931235,36.520819 Z" id="Path"></path>
                        <polygon id="Path" points="35.4385404 38.1715048 26.9938921 38.1715048 26.8696545 38.9667445 35.562778 38.9667445"></polygon>
                        <polygon id="Path" points="36.2291982 44.5334223 26.2032342 44.5334223 26.0793705 45.328662 36.3530619 45.328662"></polygon>
                        <polygon id="Path" points="36.2290271 40.5572239 26.9936893 40.5572239 26.8696545 41.3524636 36.3530619 41.3524636"></polygon>
                        <path d="M39.5141977,47.714381 L23.7085186,47.714381 L25.5221079,34.9905461 L37.7006085,34.9905461 L39.5141977,47.714381 Z M25.1503113,46.5097862 L38.0724051,46.5097862 L36.6025115,36.1951409 L26.6202049,36.1951409 L25.1503113,46.5097862 Z" id="Shape"></path>
                        <polygon id="Path" points="22.554644 44.2895526 23.7085186 35.7857858 21.7012575 35.7857858 20.5473828 44.2895526 21.3571985 46.1239017"></polygon>
                        <path d="M8.413512,20.6762318 L8.36288072,20.6432775 C7.38562763,20.0027279 6.80232753,18.9310261 6.80232753,17.7776251 L6.80232753,15.3046782 C5.5094959,14.2714231 4.74170373,12.6854966 4.74170373,11.0425867 C4.74170373,8.02314745 7.2233301,5.56667779 10.2736914,5.56667779 C13.3240527,5.56667779 15.8056791,8.02314745 15.8056791,11.0425867 C15.8056791,12.6854966 15.0378869,14.2721097 13.7450553,15.3046782 L13.7450553,17.7776251 C13.7450553,18.9310261 13.1617552,20.0027279 12.1845021,20.6432775 L12.1338708,20.6762318 L8.413512,20.6762318 Z M12.4452879,15.2984993 L12.4452879,14.6524574 L12.7185581,14.4602239 C13.8373013,13.6741261 14.5059117,12.3964598 14.5059117,11.0412136 C14.5059117,8.7309787 12.6068918,6.85120957 10.2729978,6.85120957 C7.93910383,6.85120957 6.04008399,8.7309787 6.04008399,11.0412136 C6.04008399,12.3957733 6.70869433,13.6741261 7.82743758,14.4602239 L8.10070779,14.6524574 L8.10070779,15.2984993 L12.4452879,15.2984993 Z" id="Shape"></path>
                        <path d="M10.9137968,3.92408952 C11.2322082,3.92408952 11.5456957,3.94435409 11.8542593,3.97619842 L11.8542593,0 L10.2736914,0 L10.2736914,3.95231518 C10.4854186,3.93856422 10.6979664,3.92408952 10.9137968,3.92408952 Z" id="Path"></path>
                        <path d="M6.32227164,5.35271467 L3.3905248,2.38571905 L2.37085186,3.41765165 L5.28013895,6.36191747 C5.59382688,5.99217951 5.94270176,5.65502092 6.32227164,5.35271467 Z" id="Path"></path>
                        <path d="M16.0323887,7.15715716 L18.9668149,4.21962046 L17.9300148,3.18095874 L15.0153951,6.09943042 C15.3871501,6.41819738 15.7276715,6.77204396 16.0323887,7.15715716 Z" id="Path"></path>
                        <path d="M3.89154978,11.3538426 C3.89154978,11.0094865 3.91578287,10.6717367 3.95141977,10.3381159 L0,10.3381159 L0,11.9285953 L3.91649561,11.9285953 C3.9050918,11.7378368 3.89154978,11.5479042 3.89154978,11.3538426 Z" id="Path"></path>
                        <path d="M18.2057089,10.3381159 C18.2188389,10.5413668 18.2326985,10.7437914 18.2326985,10.9511734 C18.2326985,11.2824888 18.2100856,11.6071945 18.176531,11.9285953 L22.1279507,11.9285953 L22.1279507,10.3381159 L18.2057089,10.3381159 Z" id="Path"></path>
                        <path d="M5.33525033,15.109554 L3.16113582,17.2820244 L4.16964633,18.2905127 L6.32227164,16.1395153 C5.96066023,15.8292681 5.63017111,15.48422 5.33525033,15.109554 Z" id="Path"></path>
                        <path d="M15.0153951,16.184623 L17.0815495,18.2905127 L18.176531,17.1744731 L16.1505741,15.109554 C15.807287,15.5045108 15.4278221,15.8642328 15.0153951,16.184623 Z" id="Path"></path>
                        <path d="M49.5082777,20.6762318 L49.4576464,20.6432775 C48.4803933,20.0027279 47.8970932,18.9310261 47.8970932,17.7776251 L47.8970932,15.3046782 C46.6042616,14.2714231 45.8364694,12.6854966 45.8364694,11.0425867 C45.8364694,8.02314745 48.3180958,5.56667779 51.3684571,5.56667779 C54.4188184,5.56667779 56.9004447,8.02314745 56.9004447,11.0425867 C56.9004447,12.6854966 56.1326526,14.2721097 54.839821,15.3046782 L54.839821,17.7776251 C54.839821,18.9310261 54.2565208,20.0027279 53.2792678,20.6432775 L53.2286365,20.6762318 L49.5082777,20.6762318 Z M53.5407471,15.2984993 L53.5407471,14.6524574 L53.8140173,14.4602239 C54.9327606,13.6741261 55.6013709,12.3964598 55.6013709,11.0412136 C55.6013709,8.7309787 53.7023511,6.85120957 51.3684571,6.85120957 C49.0345631,6.85120957 47.1355432,8.7309787 47.1355432,11.0412136 C47.1355432,12.3957733 47.8041536,13.6741261 48.9228968,14.4602239 L49.196167,14.6524574 L49.196167,15.2984993 L53.5407471,15.2984993 Z" id="Shape"></path>
                        <path d="M51.2182785,3.92408952 C51.5366899,3.92408952 51.8501774,3.94435409 52.158741,3.97619842 L52.158741,0 L50.5781731,0 L50.5781731,3.95231518 C50.7899003,3.93856422 51.0024481,3.92408952 51.2182785,3.92408952 Z" id="Path"></path>
                        <path d="M47.4170373,5.35271467 L44.4852904,2.38571905 L43.4656175,3.41765165 L46.3749046,6.36191747 C46.6893412,5.99217951 47.0382161,5.65502092 47.4170373,5.35271467 Z" id="Path"></path>
                        <path d="M57.1271543,7.15715716 L60.0615806,4.21962046 L59.0247804,3.18095874 L56.1101608,6.09943042 C56.4819157,6.41819738 56.8224372,6.77204396 57.1271543,7.15715716 Z" id="Path"></path>
                        <path d="M44.1960315,11.3538426 C44.1960315,11.0094865 44.2202646,10.6717367 44.2559015,10.3381159 L40.3044817,10.3381159 L40.3044817,11.9285953 L44.2209773,11.9285953 C44.2095735,11.7378368 44.1960315,11.5479042 44.1960315,11.3538426 Z" id="Path"></path>
                        <path d="M58.5101906,10.3381159 C58.5233206,10.5413668 58.5371802,10.7437914 58.5371802,10.9511734 C58.5371802,11.2824888 58.5145673,11.6071945 58.4810127,11.9285953 L62.4324324,11.9285953 L62.4324324,10.3381159 L58.5101906,10.3381159 Z" id="Path"></path>
                        <path d="M46.430016,15.109554 L44.2559015,17.2820244 L45.264412,18.2905127 L47.4170373,16.1395153 C47.0554259,15.8292681 46.7249368,15.48422 46.430016,15.109554 Z" id="Path"></path>
                        <path d="M55.3198768,16.184623 L57.3860312,18.2905127 L58.4810127,17.1744731 L56.4550558,15.109554 C56.1117687,15.5045108 55.7323038,15.8642328 55.3198768,16.184623 Z" id="Path"></path>
                    </g>
                </g>
            </g>
        </g>
    </g>
</svg>