<?xml version="1.0" encoding="UTF-8"?>
<svg width="161px" height="173px" viewBox="0 0 161 173" version="1.1" xmlns="http://www.w3.org/2000/svg" xmlns:xlink="http://www.w3.org/1999/xlink">
    <title>noun_fun_1820936</title>
    <defs>
        <filter x="-70.0%" y="-70.0%" width="240.0%" height="240.0%" filterUnits="objectBoundingBox" id="filter-1">
            <feOffset dx="10" dy="10" in="SourceAlpha" result="shadowOffsetOuter1"></feOffset>
            <feGaussianBlur stdDeviation="15" in="shadowOffsetOuter1" result="shadowBlurOuter1"></feGaussianBlur>
            <feColorMatrix values="0 0 0 0 0   0 0 0 0 0   0 0 0 0 0  0 0 0 0.18198208 0" type="matrix" in="shadowBlurOuter1" result="shadowMatrixOuter1"></feColorMatrix>
            <feMerge>
                <feMergeNode in="shadowMatrixOuter1"></feMergeNode>
                <feMergeNode in="SourceGraphic"></feMergeNode>
            </feMerge>
        </filter>
    </defs>
    <g id="Mobile" stroke="none" stroke-width="1" fill="none" fill-rule="evenodd">
        <g id="Home" transform="translate(-102.000000, -1033.000000)" fill="#FFFFFF" fill-rule="nonzero">
            <g id="Group-5" transform="translate(0.000000, 32.000000)">
                <g id="Group-4-Copy" filter="url(#filter-1)" transform="translate(127.000000, 1032.000000)">
                    <g id="Group" transform="translate(32.446043, 26.115108)">
                        <path d="M45.5973116,55.6330935 L44.0270731,49.7159772 C43.0003786,45.6288969 39.6183264,42.6398381 35.5115487,42.0908273 L31.8879212,41.6028177 L30.800833,38.3697542 C33.7601287,36.2957134 35.994699,33.0626499 36.9006058,29.1585731 C37.9273003,28.6095624 39.6183264,27.2065348 39.6183264,23.6684652 C39.6183264,21.1064149 39.1955699,19.5813849 38.3500568,18.7273681 C37.8065127,18.1173561 37.142181,17.9343525 36.6590307,17.8733513 C37.0817872,15.2502998 37.4441499,12.1392386 37.3837562,10.1872002 C37.2629686,6.1611211 35.3303673,3.59907074 32.250284,4.57508993 C27.8415373,1.70803357 21.5605831,-0.61001199 14.4341159,0.671013189 C14.5549034,1.09802158 14.97766,2.37904676 15.0984476,3.05005995 C12.6223022,1.89103717 10.5689133,2.13504197 10.5689133,2.13504197 C10.5689133,2.13504197 9.42143128,5.18510192 10.3877319,8.41816547 C9.78379402,10.2482014 9.36103749,14.396283 9.48182507,17.9343525 C8.99867474,17.9953537 8.27394926,18.1173561 7.73040515,18.7273681 C6.8244983,19.5813849 6.40174176,21.1674161 6.40174176,23.7294664 C6.40174176,27.267536 8.09276789,28.6705635 9.11946232,29.2195743 C10.0253692,33.0626499 12.2599394,36.2957134 15.2192351,38.3697542 L14.1321469,41.6028177 L10.4481257,42.0908273 C6.28095418,42.6398381 2.95929572,45.6288969 1.93260129,49.7159772 L0.362362741,55.6330935 C0.181181371,56.3041067 0.301968951,56.9751199 0.724725483,57.4631295 C1.08708822,58.0121403 1.75141992,58.2561451 2.35535782,58.2561451 L43.5439228,58.2561451 C44.2082544,58.2561451 44.8121924,57.9511391 45.1745551,57.4631295 C45.5973116,56.9141187 45.7180992,56.2431055 45.5973116,55.6330935 Z M11.2936388,28.0605516 C11.233245,27.572542 10.8104885,27.2065348 10.3877319,27.0845324 C10.2065505,27.0235312 8.75709958,26.5355216 8.75709958,23.6684652 C8.75709958,21.1674161 9.17985612,20.5574041 9.42143128,20.3744005 C9.42143128,20.3744005 9.54221886,20.3744005 9.60261265,20.3133993 C9.66300644,21.0454137 9.78379402,21.6554257 9.9045816,22.2044365 C9.96497539,22.4484412 10.2065505,22.6314448 10.4481257,22.6314448 L11.4144264,22.6314448 C11.7767891,22.6314448 12.0183643,22.3264388 11.9579705,22.0214329 C11.8371829,20.4354017 11.7163953,16.2263189 13.9509655,12.6882494 C17.0914426,14.091277 23.1912154,16.8363309 31.8275275,12.7492506 C34.0620977,15.7383094 34.0017039,20.3744005 33.8809163,22.0214329 C33.8809163,22.3264388 34.1224915,22.6314448 34.4244604,22.6314448 L35.2095797,22.6314448 C35.5115487,22.6314448 35.7531238,22.4484412 35.7531238,22.1434353 C35.8135176,21.7164269 35.9343052,21.0454137 36.1154866,20.2523981 C36.2362741,20.2523981 36.4174555,20.2523981 36.4778493,20.3744005 C36.5986369,20.4964029 37.0817872,21.1064149 37.0817872,23.607464 C37.0817872,26.4745204 35.5719424,26.96253 35.4511549,27.0235312 C34.9680045,27.1455336 34.6056418,27.5115408 34.545248,27.9995504 C33.397766,34.0386691 28.5662628,38.4307554 22.8892465,38.4307554 C17.3330178,38.4917566 12.4411208,34.0996703 11.2936388,28.0605516 Z M23.0100341,40.9318046 C25.0030292,40.9318046 26.8752367,40.443795 28.6266566,39.5897782 L29.7137448,42.7618405 C25.6673608,45.7508993 20.2319197,45.7508993 16.1855358,42.7618405 L17.272624,39.5897782 C19.0240439,40.3827938 20.9566452,40.9318046 23.0100341,40.9318046 Z" id="Shape"></path>
                        <path d="M17.0914426,27.267536 C16.8498675,27.572542 16.7290799,27.9385492 16.7894737,28.3045564 C17.1518364,31.4156175 19.8091632,33.7946643 22.9496403,33.7946643 C26.0901174,33.7946643 28.7474441,31.4156175 29.1098069,28.3045564 C29.1702007,27.9385492 29.0494131,27.572542 28.8078379,27.267536 C28.5662628,26.96253 28.2039,26.8405276 27.8415373,26.8405276 L18.1181371,26.8405276 C17.6953805,26.8405276 17.3934116,27.0235312 17.0914426,27.267536 Z M27.358387,29.4635791 L18.5408936,29.4635791 C18.3597122,29.0975719 18.1785309,28.6705635 18.1181371,28.2435552 L27.7811435,28.2435552 C27.6603559,28.6705635 27.4791746,29.0975719 27.358387,29.4635791 Z" id="Shape"></path>
                        <path d="M16.6686861,24.0344724 C16.8498675,24.2784772 17.0914426,24.4614808 17.3934116,24.4614808 C17.574593,24.4614808 17.6953805,24.4004796 17.8765619,24.3394784 L20.7754638,22.4484412 C21.017039,22.2654376 21.1982204,22.0214329 21.1982204,21.7164269 C21.1982204,21.4114209 21.0774328,21.1674161 20.7754638,20.9844125 L17.8765619,19.0933753 C17.4538054,18.8493705 16.9706551,18.9713729 16.6686861,19.3373801 C16.4271109,19.7643885 16.5478985,20.3133993 16.9102613,20.5574041 L18.6616812,21.7164269 L16.9102613,22.8144484 C16.4875047,23.0584532 16.3667172,23.607464 16.6686861,24.0344724 Z" id="Path"></path>
                        <path d="M28.0831125,24.2784772 C28.2039,24.4004796 28.3850814,24.4004796 28.5662628,24.4004796 C28.8682317,24.4004796 29.1098069,24.2784772 29.2909883,23.9734712 C29.5325634,23.5464628 29.4117758,22.997452 29.0494131,22.7534472 L27.2979932,21.5944245 L29.0494131,20.4354017 C29.4721696,20.1913969 29.5929572,19.6423861 29.2909883,19.2153777 C28.9890193,18.7883693 28.505869,18.6663669 28.0831125,18.9713729 L25.1842105,20.8624101 C24.9426354,21.0454137 24.761454,21.2894185 24.761454,21.5944245 C24.761454,21.8994305 24.8822416,22.1434353 25.1842105,22.3264388 L28.0831125,24.2784772 Z" id="Path"></path>
                    </g>
                </g>
            </g>
        </g>
    </g>
</svg>